<?xml version="1.0" encoding="iso-8859-1"?>
<!-- Generator: Adobe Illustrator 16.0.0, SVG Export Plug-In . SVG Version: 6.00 Build 0)  -->
<!DOCTYPE svg PUBLIC "-//W3C//DTD SVG 1.1//EN" "http://www.w3.org/Graphics/SVG/1.1/DTD/svg11.dtd">
<svg version="1.1" id="Capa_1" xmlns="http://www.w3.org/2000/svg" xmlns:xlink="http://www.w3.org/1999/xlink" x="0px" y="0px"
	 width="93.041px" height="93.041px" viewBox="0 0 93.041 93.041" style="enable-background:new 0 0 93.041 93.041;"
	 xml:space="preserve">
<g>
	<path d="M31.833,34.196c0-8.158,6.612-14.771,14.771-14.771c8.157,0,14.771,6.613,14.771,14.771
		c0,8.159-6.614,14.771-14.771,14.771C38.446,48.966,31.833,42.355,31.833,34.196z M74.997,53.007c0.249-3.277,7.964-7.3,7.964-7.3
		c10.682-4.833,9.624-5.642,9.624-5.642c-1.659-17.919-29.866,9.625-29.866,9.625c8.462,4.138,7.038,22.519,7.052,22.399
		c0,0-1.126,5.199,10.785-5.228c13.367-11.7,4.396-8.877-2.24-6.886c-6.637,1.99-0.435-1.162-0.435-1.162
		c7.197-2.655,10.888-2.821,14.705-10.951C96.4,39.733,74.997,53.007,74.997,53.007z M30.321,49.69c0,0-28.207-27.543-29.866-9.625
		c0,0-1.058,0.81,9.624,5.642c0,0,7.715,4.023,7.964,7.3c0,0-21.404-13.274-17.588-5.145s7.508,8.296,14.705,10.951
		c0,0,6.202,3.152-0.435,1.162c-6.637-1.991-15.607-4.812-2.24,6.886C24.397,77.287,24,72.089,24,72.089
		C24.014,72.207,21.858,53.828,30.321,49.69z M35.157,15.509c0-1.774,10.277-1.826,11.449-1.826c1.171,0,11.448,0.051,11.448,1.826
		c0,1.774-10.277,1.825-11.448,1.825C45.434,17.334,35.157,17.283,35.157,15.509z M35.852,15.509
		c0.538,0.492,4.508,1.161,10.754,1.161c6.245,0,10.215-0.669,10.753-1.161c-0.538-0.492-4.508-1.162-10.753-1.162
		C40.359,14.347,36.39,15.017,35.852,15.509z"/>
	<path d="M65.884,58.941c-1.532-4.924-5.523-8.77-10.536-10.096c-2.318,2.162-5.416,3.498-8.827,3.498
		c-3.413,0-6.512-1.334-8.828-3.498c-6.448,1.705-11.224,7.572-11.224,14.547v12.211l0.031,0.189l0.842,0.264
		c2.624,0.82,5.124,1.443,7.514,1.932l3.226,0.589c3.553,0.556,6.811,0.781,9.736,0.781c11.07,0,17.487-3.157,17.883-3.356
		l0.787-0.398l0.083,0.001V63.392c0-0.446-0.021-0.891-0.06-1.327L65.884,58.941z"/>
</g>
<g>
</g>
<g>
</g>
<g>
</g>
<g>
</g>
<g>
</g>
<g>
</g>
<g>
</g>
<g>
</g>
<g>
</g>
<g>
</g>
<g>
</g>
<g>
</g>
<g>
</g>
<g>
</g>
<g>
</g>
</svg>
